<svg width="315" height="144" viewBox="0 0 315 144" fill="none" xmlns="http://www.w3.org/2000/svg">
<g filter="url(#filter0_b_34442_26)">
<rect width="315" height="144" rx="20" fill="#3B3B3B" fill-opacity="0.5"/>
<path d="M35.472 38.912H31.872L31.26 41H30.18L32.724 32.6H34.62L37.164 41H36.084L35.472 38.912ZM33.6 33.032L32.148 37.976H35.196L33.744 33.032H33.6ZM42.6397 35.048H43.5757V41H42.6397V39.92H42.4957C42.3037 40.304 42.0517 40.608 41.7397 40.832C41.4277 41.056 41.0317 41.168 40.5517 41.168C40.2237 41.168 39.9197 41.112 39.6397 41C39.3677 40.896 39.1317 40.736 38.9317 40.52C38.7397 40.304 38.5877 40.036 38.4757 39.716C38.3717 39.396 38.3197 39.024 38.3197 38.6V35.048H39.2557V38.48C39.2557 39.104 39.3837 39.56 39.6397 39.848C39.8957 40.136 40.2877 40.28 40.8157 40.28C41.3837 40.28 41.8277 40.088 42.1477 39.704C42.4757 39.312 42.6397 38.792 42.6397 38.144V35.048ZM51.3073 38.888C51.2433 39.216 51.1313 39.52 50.9713 39.8C50.8193 40.08 50.6233 40.324 50.3833 40.532C50.1433 40.732 49.8633 40.888 49.5433 41C49.2233 41.112 48.8673 41.168 48.4753 41.168C48.0593 41.168 47.6633 41.1 47.2873 40.964C46.9193 40.828 46.5953 40.632 46.3153 40.376C46.0353 40.112 45.8113 39.792 45.6433 39.416C45.4833 39.04 45.4033 38.608 45.4033 38.12V37.976C45.4033 37.496 45.4833 37.064 45.6433 36.68C45.8113 36.296 46.0353 35.972 46.3153 35.708C46.5953 35.444 46.9193 35.24 47.2873 35.096C47.6633 34.952 48.0593 34.88 48.4753 34.88C48.8513 34.88 49.1993 34.936 49.5193 35.048C49.8393 35.16 50.1193 35.32 50.3593 35.528C50.6073 35.728 50.8073 35.968 50.9593 36.248C51.1193 36.528 51.2273 36.832 51.2833 37.16L50.3473 37.376C50.3233 37.168 50.2633 36.968 50.1673 36.776C50.0793 36.576 49.9553 36.404 49.7953 36.26C49.6433 36.108 49.4553 35.988 49.2313 35.9C49.0073 35.812 48.7473 35.768 48.4513 35.768C48.1633 35.768 47.8913 35.824 47.6353 35.936C47.3873 36.04 47.1673 36.192 46.9753 36.392C46.7833 36.584 46.6313 36.816 46.5193 37.088C46.4153 37.36 46.3633 37.656 46.3633 37.976V38.12C46.3633 38.456 46.4153 38.76 46.5193 39.032C46.6313 39.296 46.7833 39.52 46.9753 39.704C47.1673 39.888 47.3913 40.032 47.6473 40.136C47.9033 40.232 48.1793 40.28 48.4753 40.28C48.7713 40.28 49.0273 40.236 49.2433 40.148C49.4673 40.052 49.6553 39.932 49.8073 39.788C49.9673 39.636 50.0913 39.464 50.1793 39.272C50.2753 39.08 50.3393 38.88 50.3713 38.672L51.3073 38.888ZM52.883 35.048H54.755V32.6H55.691V35.048H57.995V35.912H55.691V39.776C55.691 40.016 55.799 40.136 56.015 40.136H57.707V41H55.679C55.407 41 55.183 40.912 55.007 40.736C54.839 40.56 54.755 40.336 54.755 40.064V35.912H52.883V35.048ZM62.2826 33.272C62.2826 33.04 62.3626 32.844 62.5226 32.684C62.6906 32.516 62.8906 32.432 63.1226 32.432C63.3546 32.432 63.5506 32.516 63.7106 32.684C63.8786 32.844 63.9626 33.04 63.9626 33.272C63.9626 33.504 63.8786 33.704 63.7106 33.872C63.5506 34.032 63.3546 34.112 63.1226 34.112C62.8906 34.112 62.6906 34.032 62.5226 33.872C62.3626 33.704 62.2826 33.504 62.2826 33.272ZM60.5786 40.136H62.6666V35.912H60.7946V35.048H63.6026V40.136H65.5466V41H60.5786V40.136ZM73.3983 38.096C73.3983 38.592 73.3143 39.032 73.1463 39.416C72.9863 39.792 72.7703 40.112 72.4983 40.376C72.2263 40.632 71.9063 40.828 71.5383 40.964C71.1783 41.1 70.8023 41.168 70.4103 41.168C70.0103 41.168 69.6303 41.1 69.2703 40.964C68.9103 40.828 68.5943 40.632 68.3223 40.376C68.0503 40.112 67.8303 39.792 67.6623 39.416C67.5023 39.032 67.4223 38.592 67.4223 38.096V37.952C67.4223 37.464 67.5023 37.032 67.6623 36.656C67.8303 36.272 68.0503 35.948 68.3223 35.684C68.6023 35.42 68.9223 35.22 69.2823 35.084C69.6423 34.948 70.0183 34.88 70.4103 34.88C70.8023 34.88 71.1783 34.948 71.5383 35.084C71.8983 35.22 72.2143 35.42 72.4863 35.684C72.7663 35.948 72.9863 36.272 73.1463 36.656C73.3143 37.032 73.3983 37.464 73.3983 37.952V38.096ZM70.4103 40.28C70.6983 40.28 70.9623 40.232 71.2023 40.136C71.4503 40.032 71.6663 39.884 71.8503 39.692C72.0343 39.5 72.1783 39.272 72.2823 39.008C72.3863 38.736 72.4383 38.432 72.4383 38.096V37.952C72.4383 37.632 72.3863 37.34 72.2823 37.076C72.1783 36.804 72.0343 36.572 71.8503 36.38C71.6663 36.188 71.4503 36.04 71.2023 35.936C70.9543 35.824 70.6903 35.768 70.4103 35.768C70.1303 35.768 69.8663 35.824 69.6183 35.936C69.3703 36.04 69.1543 36.188 68.9703 36.38C68.7863 36.572 68.6423 36.804 68.5383 37.076C68.4343 37.34 68.3823 37.632 68.3823 37.952V38.096C68.3823 38.432 68.4343 38.736 68.5383 39.008C68.6423 39.272 68.7863 39.5 68.9703 39.692C69.1543 39.884 69.3663 40.032 69.6063 40.136C69.8543 40.232 70.1223 40.28 70.4103 40.28ZM76.0659 41H75.1299V35.048H76.0659V36.056H76.2099C76.5779 35.272 77.2179 34.88 78.1299 34.88C78.8179 34.88 79.3659 35.096 79.7739 35.528C80.1819 35.952 80.3859 36.592 80.3859 37.448V41H79.4499V37.64C79.4499 37.016 79.3099 36.548 79.0299 36.236C78.7499 35.924 78.3699 35.768 77.8899 35.768C77.3219 35.768 76.8739 35.964 76.5459 36.356C76.2259 36.74 76.0659 37.256 76.0659 37.904V41ZM90.5093 38.312C90.5333 38.904 90.7173 39.38 91.0613 39.74C91.4053 40.1 91.8853 40.28 92.5013 40.28C92.7813 40.28 93.0253 40.248 93.2333 40.184C93.4413 40.12 93.6173 40.032 93.7613 39.92C93.9133 39.808 94.0333 39.68 94.1213 39.536C94.2173 39.384 94.2933 39.224 94.3493 39.056L95.2373 39.296C95.0693 39.848 94.7573 40.3 94.3013 40.652C93.8533 40.996 93.2453 41.168 92.4773 41.168C92.0533 41.168 91.6613 41.096 91.3013 40.952C90.9493 40.8 90.6453 40.588 90.3893 40.316C90.1333 40.044 89.9333 39.72 89.7893 39.344C89.6453 38.968 89.5732 38.552 89.5732 38.096V37.808C89.5732 37.392 89.6453 37.004 89.7893 36.644C89.9413 36.284 90.1493 35.976 90.4133 35.72C90.6773 35.456 90.9853 35.252 91.3373 35.108C91.6973 34.956 92.0853 34.88 92.5013 34.88C92.9893 34.88 93.4093 34.972 93.7613 35.156C94.1213 35.332 94.4133 35.552 94.6373 35.816C94.8693 36.08 95.0373 36.368 95.1413 36.68C95.2533 36.992 95.3093 37.28 95.3093 37.544V38.312H90.5093ZM92.5013 35.768C92.2373 35.768 91.9893 35.812 91.7573 35.9C91.5333 35.98 91.3333 36.096 91.1573 36.248C90.9893 36.4 90.8493 36.58 90.7373 36.788C90.6333 36.988 90.5653 37.208 90.5333 37.448H94.3733C94.3573 37.192 94.2933 36.96 94.1813 36.752C94.0773 36.544 93.9373 36.368 93.7613 36.224C93.5933 36.08 93.3973 35.968 93.1733 35.888C92.9573 35.808 92.7333 35.768 92.5013 35.768ZM98.1089 41H97.1729V35.048H98.1089V36.056H98.2529C98.6209 35.272 99.2609 34.88 100.173 34.88C100.861 34.88 101.409 35.096 101.817 35.528C102.225 35.952 102.429 36.592 102.429 37.448V41H101.493V37.64C101.493 37.016 101.353 36.548 101.073 36.236C100.793 35.924 100.413 35.768 99.9329 35.768C99.3649 35.768 98.9169 35.964 98.5889 36.356C98.2689 36.74 98.1089 37.256 98.1089 37.904V41ZM109.129 40.088H108.985C108.889 40.272 108.765 40.432 108.613 40.568C108.469 40.704 108.309 40.816 108.133 40.904C107.965 40.992 107.785 41.056 107.593 41.096C107.401 41.144 107.217 41.168 107.041 41.168C106.641 41.168 106.269 41.1 105.925 40.964C105.581 40.828 105.277 40.632 105.013 40.376C104.757 40.12 104.553 39.804 104.401 39.428C104.257 39.044 104.185 38.608 104.185 38.12V37.928C104.185 37.448 104.261 37.02 104.413 36.644C104.565 36.26 104.769 35.94 105.025 35.684C105.281 35.42 105.581 35.22 105.925 35.084C106.269 34.948 106.633 34.88 107.017 34.88C107.425 34.88 107.805 34.972 108.157 35.156C108.517 35.332 108.793 35.608 108.985 35.984H109.129V32.6H110.065V41H109.129V40.088ZM107.137 40.28C107.417 40.28 107.677 40.228 107.917 40.124C108.157 40.02 108.365 39.872 108.541 39.68C108.725 39.488 108.869 39.26 108.973 38.996C109.077 38.724 109.129 38.424 109.129 38.096V37.952C109.129 37.632 109.077 37.34 108.973 37.076C108.869 36.804 108.725 36.572 108.541 36.38C108.365 36.188 108.153 36.04 107.905 35.936C107.665 35.824 107.409 35.768 107.137 35.768C106.857 35.768 106.593 35.82 106.345 35.924C106.105 36.028 105.893 36.176 105.709 36.368C105.533 36.56 105.393 36.788 105.289 37.052C105.193 37.316 105.145 37.608 105.145 37.928V38.12C105.145 38.456 105.193 38.756 105.289 39.02C105.393 39.284 105.533 39.512 105.709 39.704C105.893 39.888 106.105 40.032 106.345 40.136C106.585 40.232 106.849 40.28 107.137 40.28ZM113.104 36.584C113.104 36.872 113.224 37.092 113.464 37.244C113.712 37.396 114.16 37.496 114.808 37.544C115.504 37.6 116.032 37.768 116.392 38.048C116.76 38.32 116.944 38.72 116.944 39.248V39.32C116.944 39.608 116.884 39.868 116.764 40.1C116.652 40.324 116.492 40.516 116.284 40.676C116.084 40.836 115.836 40.956 115.54 41.036C115.252 41.124 114.936 41.168 114.592 41.168C114.128 41.168 113.728 41.108 113.392 40.988C113.064 40.86 112.788 40.696 112.564 40.496C112.348 40.288 112.184 40.056 112.072 39.8C111.96 39.536 111.896 39.272 111.88 39.008L112.768 38.792C112.808 39.248 112.984 39.616 113.296 39.896C113.608 40.168 114.024 40.304 114.544 40.304C114.984 40.304 115.336 40.22 115.6 40.052C115.872 39.876 116.008 39.632 116.008 39.32C116.008 38.984 115.876 38.744 115.612 38.6C115.348 38.456 114.92 38.364 114.328 38.324C113.64 38.276 113.112 38.116 112.744 37.844C112.376 37.572 112.192 37.176 112.192 36.656V36.584C112.192 36.304 112.252 36.06 112.372 35.852C112.492 35.636 112.652 35.456 112.852 35.312C113.06 35.168 113.292 35.06 113.548 34.988C113.804 34.916 114.072 34.88 114.352 34.88C114.744 34.88 115.088 34.936 115.384 35.048C115.68 35.152 115.928 35.292 116.128 35.468C116.328 35.636 116.48 35.832 116.584 36.056C116.696 36.28 116.768 36.504 116.8 36.728L115.912 36.944C115.872 36.56 115.716 36.26 115.444 36.044C115.18 35.828 114.832 35.72 114.4 35.72C114.232 35.72 114.068 35.74 113.908 35.78C113.756 35.812 113.62 35.864 113.5 35.936C113.38 36.008 113.284 36.1 113.212 36.212C113.14 36.316 113.104 36.44 113.104 36.584ZM128.412 33.272C128.412 33.04 128.492 32.844 128.652 32.684C128.82 32.516 129.02 32.432 129.252 32.432C129.484 32.432 129.68 32.516 129.84 32.684C130.008 32.844 130.092 33.04 130.092 33.272C130.092 33.504 130.008 33.704 129.84 33.872C129.68 34.032 129.484 34.112 129.252 34.112C129.02 34.112 128.82 34.032 128.652 33.872C128.492 33.704 128.412 33.504 128.412 33.272ZM126.708 40.136H128.796V35.912H126.924V35.048H129.732V40.136H131.676V41H126.708V40.136ZM134.847 41H133.911V35.048H134.847V36.056H134.991C135.359 35.272 135.999 34.88 136.911 34.88C137.599 34.88 138.147 35.096 138.555 35.528C138.963 35.952 139.167 36.592 139.167 37.448V41H138.231V37.64C138.231 37.016 138.091 36.548 137.811 36.236C137.531 35.924 137.151 35.768 136.671 35.768C136.103 35.768 135.655 35.964 135.327 36.356C135.007 36.74 134.847 37.256 134.847 37.904V41ZM143.047 40.328C143.047 40.096 143.127 39.9 143.287 39.74C143.455 39.572 143.655 39.488 143.887 39.488C144.119 39.488 144.315 39.572 144.475 39.74C144.643 39.9 144.727 40.096 144.727 40.328C144.727 40.56 144.643 40.76 144.475 40.928C144.315 41.088 144.119 41.168 143.887 41.168C143.655 41.168 143.455 41.088 143.287 40.928C143.127 40.76 143.047 40.56 143.047 40.328ZM143.047 35.72C143.047 35.488 143.127 35.292 143.287 35.132C143.455 34.964 143.655 34.88 143.887 34.88C144.119 34.88 144.315 34.964 144.475 35.132C144.643 35.292 144.727 35.488 144.727 35.72C144.727 35.952 144.643 36.152 144.475 36.32C144.315 36.48 144.119 36.56 143.887 36.56C143.655 36.56 143.455 36.48 143.287 36.32C143.127 36.152 143.047 35.952 143.047 35.72Z" fill="white"/>
<path d="M32.508 78.144V63.4H50.292V68.188H37.524V75.408H38.208C38.5627 74.42 39.2213 73.5713 40.184 72.862C41.172 72.1273 42.4893 71.76 44.136 71.76C45.3773 71.76 46.492 71.9753 47.48 72.406C48.468 72.8367 49.304 73.432 49.988 74.192C50.672 74.952 51.1913 75.864 51.546 76.928C51.926 77.992 52.116 79.1573 52.116 80.424V80.652C52.116 81.9947 51.888 83.2613 51.432 84.452C51.0013 85.6427 50.3553 86.694 49.494 87.606C48.658 88.4927 47.6193 89.202 46.378 89.734C45.1367 90.266 43.7053 90.532 42.084 90.532C40.4627 90.532 39.0313 90.3167 37.79 89.886C36.5487 89.43 35.4973 88.8093 34.636 88.024C33.8 87.2133 33.154 86.2633 32.698 85.174C32.2673 84.0593 32.052 82.856 32.052 81.564V80.652H37.068V81.108C37.068 82.4507 37.4733 83.5653 38.284 84.452C39.12 85.3133 40.336 85.744 41.932 85.744C43.528 85.744 44.782 85.3133 45.694 84.452C46.6313 83.5907 47.1 82.4 47.1 80.88C47.1 79.436 46.758 78.3593 46.074 77.65C45.39 76.9153 44.4907 76.548 43.376 76.548C42.6413 76.548 42.046 76.7127 41.59 77.042C41.134 77.346 40.8427 77.7133 40.716 78.144H32.508ZM60.9056 82.476C60.9056 83.3627 61.2222 84.1353 61.8556 84.794C62.5142 85.4273 63.5276 85.744 64.8956 85.744C66.2636 85.744 67.3402 85.3513 68.1256 84.566C68.9362 83.7553 69.3416 82.704 69.3416 81.412V77.992H68.6576C68.3029 78.8787 67.7202 79.6007 66.9096 80.158C66.0989 80.69 64.9462 80.956 63.4516 80.956C62.3116 80.956 61.2476 80.7533 60.2596 80.348C59.2969 79.9173 58.4482 79.322 57.7136 78.562C57.0042 77.802 56.4469 76.89 56.0416 75.826C55.6362 74.762 55.4336 73.584 55.4336 72.292V71.836C55.4336 70.5693 55.6616 69.3913 56.1176 68.302C56.5736 67.1873 57.2069 66.2373 58.0176 65.452C58.8536 64.6413 59.8542 64.008 61.0196 63.552C62.2102 63.096 63.5276 62.868 64.9716 62.868C66.2889 62.868 67.5176 63.0833 68.6576 63.514C69.8229 63.9447 70.8236 64.5527 71.6596 65.338C72.4956 66.098 73.1542 67.0227 73.6356 68.112C74.1169 69.176 74.3576 70.354 74.3576 71.646V81.336C74.3576 82.78 74.1169 84.072 73.6356 85.212C73.1542 86.352 72.4956 87.3147 71.6596 88.1C70.8236 88.8853 69.8356 89.4933 68.6956 89.924C67.5809 90.3293 66.3649 90.532 65.0476 90.532C63.7556 90.532 62.5522 90.3547 61.4376 90C60.3229 89.62 59.3476 89.088 58.5116 88.404C57.7009 87.6947 57.0549 86.846 56.5736 85.858C56.1176 84.87 55.8896 83.7427 55.8896 82.476H60.9056ZM64.8956 67.656C63.6036 67.656 62.5396 68.0487 61.7036 68.834C60.8676 69.594 60.4496 70.62 60.4496 71.912C60.4496 73.204 60.8676 74.2427 61.7036 75.028C62.5396 75.788 63.6036 76.168 64.8956 76.168C66.1876 76.168 67.2516 75.788 68.0876 75.028C68.9236 74.2427 69.3416 73.204 69.3416 71.912C69.3416 70.62 68.9236 69.594 68.0876 68.834C67.2516 68.0487 66.1876 67.656 64.8956 67.656Z" fill="white"/>
<path d="M30.876 106.6H31.884V110.32H35.46V106.6H36.468V115H35.46V111.256H31.884V115H30.876V106.6ZM44.0077 112.096C44.0077 112.592 43.9237 113.032 43.7557 113.416C43.5957 113.792 43.3797 114.112 43.1077 114.376C42.8357 114.632 42.5157 114.828 42.1477 114.964C41.7877 115.1 41.4117 115.168 41.0197 115.168C40.6197 115.168 40.2397 115.1 39.8797 114.964C39.5197 114.828 39.2037 114.632 38.9317 114.376C38.6597 114.112 38.4397 113.792 38.2717 113.416C38.1117 113.032 38.0317 112.592 38.0317 112.096V111.952C38.0317 111.464 38.1117 111.032 38.2717 110.656C38.4397 110.272 38.6597 109.948 38.9317 109.684C39.2117 109.42 39.5317 109.22 39.8917 109.084C40.2517 108.948 40.6277 108.88 41.0197 108.88C41.4117 108.88 41.7877 108.948 42.1477 109.084C42.5077 109.22 42.8237 109.42 43.0957 109.684C43.3757 109.948 43.5957 110.272 43.7557 110.656C43.9237 111.032 44.0077 111.464 44.0077 111.952V112.096ZM41.0197 114.28C41.3077 114.28 41.5717 114.232 41.8117 114.136C42.0597 114.032 42.2757 113.884 42.4597 113.692C42.6437 113.5 42.7877 113.272 42.8917 113.008C42.9957 112.736 43.0477 112.432 43.0477 112.096V111.952C43.0477 111.632 42.9957 111.34 42.8917 111.076C42.7877 110.804 42.6437 110.572 42.4597 110.38C42.2757 110.188 42.0597 110.04 41.8117 109.936C41.5637 109.824 41.2997 109.768 41.0197 109.768C40.7397 109.768 40.4757 109.824 40.2277 109.936C39.9797 110.04 39.7637 110.188 39.5797 110.38C39.3957 110.572 39.2517 110.804 39.1477 111.076C39.0437 111.34 38.9917 111.632 38.9917 111.952V112.096C38.9917 112.432 39.0437 112.736 39.1477 113.008C39.2517 113.272 39.3957 113.5 39.5797 113.692C39.7637 113.884 39.9757 114.032 40.2157 114.136C40.4637 114.232 40.7317 114.28 41.0197 114.28ZM49.9873 109.048H50.9233V115H49.9873V113.92H49.8433C49.6513 114.304 49.3993 114.608 49.0873 114.832C48.7753 115.056 48.3793 115.168 47.8993 115.168C47.5713 115.168 47.2673 115.112 46.9873 115C46.7153 114.896 46.4793 114.736 46.2793 114.52C46.0873 114.304 45.9353 114.036 45.8233 113.716C45.7193 113.396 45.6673 113.024 45.6673 112.6V109.048H46.6033V112.48C46.6033 113.104 46.7313 113.56 46.9873 113.848C47.2433 114.136 47.6353 114.28 48.1633 114.28C48.7313 114.28 49.1753 114.088 49.4953 113.704C49.8233 113.312 49.9873 112.792 49.9873 112.144V109.048ZM52.751 109.048H54.911V109.84H55.055C55.207 109.512 55.423 109.272 55.703 109.12C55.983 108.96 56.303 108.88 56.663 108.88C57.263 108.88 57.747 109.076 58.115 109.468C58.483 109.86 58.679 110.432 58.703 111.184L57.719 111.328C57.719 110.776 57.587 110.38 57.323 110.14C57.059 109.892 56.735 109.768 56.351 109.768C56.103 109.768 55.887 109.816 55.703 109.912C55.527 110.008 55.379 110.14 55.259 110.308C55.139 110.476 55.051 110.672 54.995 110.896C54.939 111.12 54.911 111.36 54.911 111.616V114.136H56.423V115H52.607V114.136H53.975V109.912H52.751V109.048ZM61.6706 110.584C61.6706 110.872 61.7906 111.092 62.0306 111.244C62.2786 111.396 62.7266 111.496 63.3746 111.544C64.0706 111.6 64.5986 111.768 64.9586 112.048C65.3266 112.32 65.5106 112.72 65.5106 113.248V113.32C65.5106 113.608 65.4506 113.868 65.3306 114.1C65.2186 114.324 65.0586 114.516 64.8506 114.676C64.6506 114.836 64.4026 114.956 64.1066 115.036C63.8186 115.124 63.5026 115.168 63.1586 115.168C62.6946 115.168 62.2946 115.108 61.9586 114.988C61.6306 114.86 61.3546 114.696 61.1306 114.496C60.9146 114.288 60.7506 114.056 60.6386 113.8C60.5266 113.536 60.4626 113.272 60.4466 113.008L61.3346 112.792C61.3746 113.248 61.5506 113.616 61.8626 113.896C62.1746 114.168 62.5906 114.304 63.1106 114.304C63.5506 114.304 63.9026 114.22 64.1666 114.052C64.4386 113.876 64.5746 113.632 64.5746 113.32C64.5746 112.984 64.4426 112.744 64.1786 112.6C63.9146 112.456 63.4866 112.364 62.8946 112.324C62.2066 112.276 61.6786 112.116 61.3106 111.844C60.9426 111.572 60.7586 111.176 60.7586 110.656V110.584C60.7586 110.304 60.8186 110.06 60.9386 109.852C61.0586 109.636 61.2186 109.456 61.4186 109.312C61.6266 109.168 61.8586 109.06 62.1146 108.988C62.3706 108.916 62.6386 108.88 62.9186 108.88C63.3106 108.88 63.6546 108.936 63.9506 109.048C64.2466 109.152 64.4946 109.292 64.6946 109.468C64.8946 109.636 65.0466 109.832 65.1506 110.056C65.2626 110.28 65.3346 110.504 65.3666 110.728L64.4786 110.944C64.4386 110.56 64.2826 110.26 64.0106 110.044C63.7466 109.828 63.3986 109.72 62.9666 109.72C62.7986 109.72 62.6346 109.74 62.4746 109.78C62.3226 109.812 62.1866 109.864 62.0666 109.936C61.9466 110.008 61.8506 110.1 61.7786 110.212C61.7066 110.316 61.6706 110.44 61.6706 110.584Z" fill="white"/>
<path d="M110.894 80.732C110.894 81.1053 110.819 81.46 110.67 81.796C110.539 82.1133 110.353 82.3933 110.11 82.636C109.867 82.86 109.578 83.0373 109.242 83.168C108.925 83.3173 108.589 83.392 108.234 83.392C107.861 83.392 107.515 83.3173 107.198 83.168C106.881 83.0373 106.601 82.86 106.358 82.636C106.115 82.3933 105.919 82.1133 105.77 81.796C105.639 81.46 105.574 81.1053 105.574 80.732C105.574 80.3587 105.639 80.0133 105.77 79.696C105.919 79.36 106.115 79.08 106.358 78.856C106.601 78.6133 106.881 78.4267 107.198 78.296C107.515 78.1467 107.861 78.072 108.234 78.072C108.589 78.072 108.925 78.1467 109.242 78.296C109.578 78.4267 109.867 78.6133 110.11 78.856C110.353 79.08 110.539 79.36 110.67 79.696C110.819 80.0133 110.894 80.3587 110.894 80.732ZM110.894 71.38C110.894 71.7533 110.819 72.108 110.67 72.444C110.539 72.7613 110.353 73.0413 110.11 73.284C109.867 73.508 109.578 73.6947 109.242 73.844C108.925 73.9747 108.589 74.04 108.234 74.04C107.861 74.04 107.515 73.9747 107.198 73.844C106.881 73.6947 106.601 73.508 106.358 73.284C106.115 73.0413 105.919 72.7613 105.77 72.444C105.639 72.108 105.574 71.7533 105.574 71.38C105.574 71.0067 105.639 70.6613 105.77 70.344C105.919 70.008 106.115 69.728 106.358 69.504C106.601 69.2613 106.881 69.0747 107.198 68.944C107.515 68.7947 107.861 68.72 108.234 68.72C108.589 68.72 108.925 68.7947 109.242 68.944C109.578 69.0747 109.867 69.2613 110.11 69.504C110.353 69.728 110.539 70.008 110.67 70.344C110.819 70.6613 110.894 71.0067 110.894 71.38Z" fill="white"/>
<path d="M130.174 78.144V63.4H147.958V68.188H135.19V75.408H135.874C136.229 74.42 136.887 73.5713 137.85 72.862C138.838 72.1273 140.155 71.76 141.802 71.76C143.043 71.76 144.158 71.9753 145.146 72.406C146.134 72.8367 146.97 73.432 147.654 74.192C148.338 74.952 148.857 75.864 149.212 76.928C149.592 77.992 149.782 79.1573 149.782 80.424V80.652C149.782 81.9947 149.554 83.2613 149.098 84.452C148.667 85.6427 148.021 86.694 147.16 87.606C146.324 88.4927 145.285 89.202 144.044 89.734C142.803 90.266 141.371 90.532 139.75 90.532C138.129 90.532 136.697 90.3167 135.456 89.886C134.215 89.43 133.163 88.8093 132.302 88.024C131.466 87.2133 130.82 86.2633 130.364 85.174C129.933 84.0593 129.718 82.856 129.718 81.564V80.652H134.734V81.108C134.734 82.4507 135.139 83.5653 135.95 84.452C136.786 85.3133 138.002 85.744 139.598 85.744C141.194 85.744 142.448 85.3133 143.36 84.452C144.297 83.5907 144.766 82.4 144.766 80.88C144.766 79.436 144.424 78.3593 143.74 77.65C143.056 76.9153 142.157 76.548 141.042 76.548C140.307 76.548 139.712 76.7127 139.256 77.042C138.8 77.346 138.509 77.7133 138.382 78.144H130.174ZM158.572 82.476C158.572 83.3627 158.888 84.1353 159.522 84.794C160.18 85.4273 161.194 85.744 162.562 85.744C163.93 85.744 165.006 85.3513 165.792 84.566C166.602 83.7553 167.008 82.704 167.008 81.412V77.992H166.324C165.969 78.8787 165.386 79.6007 164.576 80.158C163.765 80.69 162.612 80.956 161.118 80.956C159.978 80.956 158.914 80.7533 157.926 80.348C156.963 79.9173 156.114 79.322 155.38 78.562C154.67 77.802 154.113 76.89 153.708 75.826C153.302 74.762 153.1 73.584 153.1 72.292V71.836C153.1 70.5693 153.328 69.3913 153.784 68.302C154.24 67.1873 154.873 66.2373 155.684 65.452C156.52 64.6413 157.52 64.008 158.686 63.552C159.876 63.096 161.194 62.868 162.638 62.868C163.955 62.868 165.184 63.0833 166.324 63.514C167.489 63.9447 168.49 64.5527 169.326 65.338C170.162 66.098 170.82 67.0227 171.302 68.112C171.783 69.176 172.024 70.354 172.024 71.646V81.336C172.024 82.78 171.783 84.072 171.302 85.212C170.82 86.352 170.162 87.3147 169.326 88.1C168.49 88.8853 167.502 89.4933 166.362 89.924C165.247 90.3293 164.031 90.532 162.714 90.532C161.422 90.532 160.218 90.3547 159.104 90C157.989 89.62 157.014 89.088 156.178 88.404C155.367 87.6947 154.721 86.846 154.24 85.858C153.784 84.87 153.556 83.7427 153.556 82.476H158.572ZM162.562 67.656C161.27 67.656 160.206 68.0487 159.37 68.834C158.534 69.594 158.116 70.62 158.116 71.912C158.116 73.204 158.534 74.2427 159.37 75.028C160.206 75.788 161.27 76.168 162.562 76.168C163.854 76.168 164.918 75.788 165.754 75.028C166.59 74.2427 167.008 73.204 167.008 71.912C167.008 70.62 166.59 69.594 165.754 68.834C164.918 68.0487 163.854 67.656 162.562 67.656Z" fill="white"/>
<path d="M128.218 106.6H130.138L131.266 114.568H131.41L132.538 106.6H134.458V115H133.522V107.032H133.378L132.25 115H130.426L129.298 107.032H129.154V115H128.218V106.6ZM137.906 107.272C137.906 107.04 137.986 106.844 138.146 106.684C138.314 106.516 138.514 106.432 138.746 106.432C138.978 106.432 139.174 106.516 139.334 106.684C139.502 106.844 139.586 107.04 139.586 107.272C139.586 107.504 139.502 107.704 139.334 107.872C139.174 108.032 138.978 108.112 138.746 108.112C138.514 108.112 138.314 108.032 138.146 107.872C137.986 107.704 137.906 107.504 137.906 107.272ZM136.202 114.136H138.29V109.912H136.418V109.048H139.226V114.136H141.17V115H136.202V114.136ZM144.341 115H143.405V109.048H144.341V110.056H144.485C144.853 109.272 145.493 108.88 146.405 108.88C147.093 108.88 147.641 109.096 148.049 109.528C148.457 109.952 148.661 110.592 148.661 111.448V115H147.725V111.64C147.725 111.016 147.585 110.548 147.305 110.236C147.025 109.924 146.645 109.768 146.165 109.768C145.597 109.768 145.149 109.964 144.821 110.356C144.501 110.74 144.341 111.256 144.341 111.904V115ZM155.001 109.048H155.937V115H155.001V113.92H154.857C154.665 114.304 154.413 114.608 154.101 114.832C153.789 115.056 153.393 115.168 152.913 115.168C152.585 115.168 152.281 115.112 152.001 115C151.729 114.896 151.493 114.736 151.293 114.52C151.101 114.304 150.949 114.036 150.837 113.716C150.733 113.396 150.681 113.024 150.681 112.6V109.048H151.617V112.48C151.617 113.104 151.745 113.56 152.001 113.848C152.257 114.136 152.649 114.28 153.177 114.28C153.745 114.28 154.189 114.088 154.509 113.704C154.837 113.312 155.001 112.792 155.001 112.144V109.048ZM157.897 109.048H159.769V106.6H160.705V109.048H163.009V109.912H160.705V113.776C160.705 114.016 160.813 114.136 161.029 114.136H162.721V115H160.693C160.421 115 160.197 114.912 160.021 114.736C159.853 114.56 159.769 114.336 159.769 114.064V109.912H157.897V109.048ZM166.132 112.312C166.156 112.904 166.34 113.38 166.684 113.74C167.028 114.1 167.508 114.28 168.124 114.28C168.404 114.28 168.648 114.248 168.856 114.184C169.064 114.12 169.24 114.032 169.384 113.92C169.536 113.808 169.656 113.68 169.744 113.536C169.84 113.384 169.916 113.224 169.972 113.056L170.86 113.296C170.692 113.848 170.38 114.3 169.924 114.652C169.476 114.996 168.868 115.168 168.1 115.168C167.676 115.168 167.284 115.096 166.924 114.952C166.572 114.8 166.268 114.588 166.012 114.316C165.756 114.044 165.556 113.72 165.412 113.344C165.268 112.968 165.196 112.552 165.196 112.096V111.808C165.196 111.392 165.268 111.004 165.412 110.644C165.564 110.284 165.772 109.976 166.036 109.72C166.3 109.456 166.608 109.252 166.96 109.108C167.32 108.956 167.708 108.88 168.124 108.88C168.612 108.88 169.032 108.972 169.384 109.156C169.744 109.332 170.036 109.552 170.26 109.816C170.492 110.08 170.66 110.368 170.764 110.68C170.876 110.992 170.932 111.28 170.932 111.544V112.312H166.132ZM168.124 109.768C167.86 109.768 167.612 109.812 167.38 109.9C167.156 109.98 166.956 110.096 166.78 110.248C166.612 110.4 166.472 110.58 166.36 110.788C166.256 110.988 166.188 111.208 166.156 111.448H169.996C169.98 111.192 169.916 110.96 169.804 110.752C169.7 110.544 169.56 110.368 169.384 110.224C169.216 110.08 169.02 109.968 168.796 109.888C168.58 109.808 168.356 109.768 168.124 109.768ZM174.032 110.584C174.032 110.872 174.152 111.092 174.392 111.244C174.64 111.396 175.088 111.496 175.736 111.544C176.432 111.6 176.96 111.768 177.32 112.048C177.688 112.32 177.872 112.72 177.872 113.248V113.32C177.872 113.608 177.812 113.868 177.692 114.1C177.58 114.324 177.42 114.516 177.212 114.676C177.012 114.836 176.764 114.956 176.468 115.036C176.18 115.124 175.864 115.168 175.52 115.168C175.056 115.168 174.656 115.108 174.32 114.988C173.992 114.86 173.716 114.696 173.492 114.496C173.276 114.288 173.112 114.056 173 113.8C172.888 113.536 172.824 113.272 172.808 113.008L173.696 112.792C173.736 113.248 173.912 113.616 174.224 113.896C174.536 114.168 174.952 114.304 175.472 114.304C175.912 114.304 176.264 114.22 176.528 114.052C176.8 113.876 176.936 113.632 176.936 113.32C176.936 112.984 176.804 112.744 176.54 112.6C176.276 112.456 175.848 112.364 175.256 112.324C174.568 112.276 174.04 112.116 173.672 111.844C173.304 111.572 173.12 111.176 173.12 110.656V110.584C173.12 110.304 173.18 110.06 173.3 109.852C173.42 109.636 173.58 109.456 173.78 109.312C173.988 109.168 174.22 109.06 174.476 108.988C174.732 108.916 175 108.88 175.28 108.88C175.672 108.88 176.016 108.936 176.312 109.048C176.608 109.152 176.856 109.292 177.056 109.468C177.256 109.636 177.408 109.832 177.512 110.056C177.624 110.28 177.696 110.504 177.728 110.728L176.84 110.944C176.8 110.56 176.644 110.26 176.372 110.044C176.108 109.828 175.76 109.72 175.328 109.72C175.16 109.72 174.996 109.74 174.836 109.78C174.684 109.812 174.548 109.864 174.428 109.936C174.308 110.008 174.212 110.1 174.14 110.212C174.068 110.316 174.032 110.44 174.032 110.584Z" fill="white"/>
<path d="M208.562 80.732C208.562 81.1053 208.487 81.46 208.338 81.796C208.207 82.1133 208.021 82.3933 207.778 82.636C207.535 82.86 207.246 83.0373 206.91 83.168C206.593 83.3173 206.257 83.392 205.902 83.392C205.529 83.392 205.183 83.3173 204.866 83.168C204.549 83.0373 204.269 82.86 204.026 82.636C203.783 82.3933 203.587 82.1133 203.438 81.796C203.307 81.46 203.242 81.1053 203.242 80.732C203.242 80.3587 203.307 80.0133 203.438 79.696C203.587 79.36 203.783 79.08 204.026 78.856C204.269 78.6133 204.549 78.4267 204.866 78.296C205.183 78.1467 205.529 78.072 205.902 78.072C206.257 78.072 206.593 78.1467 206.91 78.296C207.246 78.4267 207.535 78.6133 207.778 78.856C208.021 79.08 208.207 79.36 208.338 79.696C208.487 80.0133 208.562 80.3587 208.562 80.732ZM208.562 71.38C208.562 71.7533 208.487 72.108 208.338 72.444C208.207 72.7613 208.021 73.0413 207.778 73.284C207.535 73.508 207.246 73.6947 206.91 73.844C206.593 73.9747 206.257 74.04 205.902 74.04C205.529 74.04 205.183 73.9747 204.866 73.844C204.549 73.6947 204.269 73.508 204.026 73.284C203.783 73.0413 203.587 72.7613 203.438 72.444C203.307 72.108 203.242 71.7533 203.242 71.38C203.242 71.0067 203.307 70.6613 203.438 70.344C203.587 70.008 203.783 69.728 204.026 69.504C204.269 69.2613 204.549 69.0747 204.866 68.944C205.183 68.7947 205.529 68.72 205.902 68.72C206.257 68.72 206.593 68.7947 206.91 68.944C207.246 69.0747 207.535 69.2613 207.778 69.504C208.021 69.728 208.207 70.008 208.338 70.344C208.487 70.6613 208.562 71.0067 208.562 71.38Z" fill="white"/>
<path d="M227.842 78.144V63.4H245.626V68.188H232.858V75.408H233.542C233.897 74.42 234.555 73.5713 235.518 72.862C236.506 72.1273 237.823 71.76 239.47 71.76C240.711 71.76 241.826 71.9753 242.814 72.406C243.802 72.8367 244.638 73.432 245.322 74.192C246.006 74.952 246.525 75.864 246.88 76.928C247.26 77.992 247.45 79.1573 247.45 80.424V80.652C247.45 81.9947 247.222 83.2613 246.766 84.452C246.335 85.6427 245.689 86.694 244.828 87.606C243.992 88.4927 242.953 89.202 241.712 89.734C240.471 90.266 239.039 90.532 237.418 90.532C235.797 90.532 234.365 90.3167 233.124 89.886C231.883 89.43 230.831 88.8093 229.97 88.024C229.134 87.2133 228.488 86.2633 228.032 85.174C227.601 84.0593 227.386 82.856 227.386 81.564V80.652H232.402V81.108C232.402 82.4507 232.807 83.5653 233.618 84.452C234.454 85.3133 235.67 85.744 237.266 85.744C238.862 85.744 240.116 85.3133 241.028 84.452C241.965 83.5907 242.434 82.4 242.434 80.88C242.434 79.436 242.092 78.3593 241.408 77.65C240.724 76.9153 239.825 76.548 238.71 76.548C237.975 76.548 237.38 76.7127 236.924 77.042C236.468 77.346 236.177 77.7133 236.05 78.144H227.842ZM256.24 82.476C256.24 83.3627 256.556 84.1353 257.19 84.794C257.848 85.4273 258.862 85.744 260.23 85.744C261.598 85.744 262.674 85.3513 263.46 84.566C264.27 83.7553 264.676 82.704 264.676 81.412V77.992H263.992C263.637 78.8787 263.054 79.6007 262.244 80.158C261.433 80.69 260.28 80.956 258.786 80.956C257.646 80.956 256.582 80.7533 255.594 80.348C254.631 79.9173 253.782 79.322 253.048 78.562C252.338 77.802 251.781 76.89 251.376 75.826C250.97 74.762 250.768 73.584 250.768 72.292V71.836C250.768 70.5693 250.996 69.3913 251.452 68.302C251.908 67.1873 252.541 66.2373 253.352 65.452C254.188 64.6413 255.188 64.008 256.354 63.552C257.544 63.096 258.862 62.868 260.306 62.868C261.623 62.868 262.852 63.0833 263.992 63.514C265.157 63.9447 266.158 64.5527 266.994 65.338C267.83 66.098 268.488 67.0227 268.97 68.112C269.451 69.176 269.692 70.354 269.692 71.646V81.336C269.692 82.78 269.451 84.072 268.97 85.212C268.488 86.352 267.83 87.3147 266.994 88.1C266.158 88.8853 265.17 89.4933 264.03 89.924C262.915 90.3293 261.699 90.532 260.382 90.532C259.09 90.532 257.886 90.3547 256.772 90C255.657 89.62 254.682 89.088 253.846 88.404C253.035 87.6947 252.389 86.846 251.908 85.858C251.452 84.87 251.224 83.7427 251.224 82.476H256.24ZM260.23 67.656C258.938 67.656 257.874 68.0487 257.038 68.834C256.202 69.594 255.784 70.62 255.784 71.912C255.784 73.204 256.202 74.2427 257.038 75.028C257.874 75.788 258.938 76.168 260.23 76.168C261.522 76.168 262.586 75.788 263.422 75.028C264.258 74.2427 264.676 73.204 264.676 71.912C264.676 70.62 264.258 69.594 263.422 68.834C262.586 68.0487 261.522 67.656 260.23 67.656Z" fill="white"/>
<path d="M230.986 109.024C230.986 108.752 230.93 108.512 230.818 108.304C230.714 108.096 230.57 107.924 230.386 107.788C230.202 107.652 229.99 107.548 229.75 107.476C229.51 107.404 229.258 107.368 228.994 107.368C228.762 107.368 228.542 107.4 228.334 107.464C228.126 107.52 227.938 107.604 227.77 107.716C227.61 107.828 227.482 107.968 227.386 108.136C227.29 108.296 227.242 108.484 227.242 108.7V108.772C227.242 109.004 227.29 109.204 227.386 109.372C227.482 109.532 227.622 109.672 227.806 109.792C227.998 109.904 228.234 110 228.514 110.08C228.794 110.152 229.122 110.216 229.498 110.272C230.378 110.408 231.026 110.668 231.442 111.052C231.858 111.428 232.066 111.936 232.066 112.576V112.72C232.066 113.08 232.002 113.412 231.874 113.716C231.754 114.012 231.57 114.268 231.322 114.484C231.082 114.7 230.782 114.868 230.422 114.988C230.062 115.108 229.646 115.168 229.174 115.168C228.638 115.168 228.162 115.092 227.746 114.94C227.338 114.78 226.994 114.564 226.714 114.292C226.442 114.012 226.234 113.688 226.09 113.32C225.946 112.944 225.874 112.536 225.874 112.096V111.736H226.882V112.024C226.882 112.76 227.082 113.312 227.482 113.68C227.89 114.048 228.454 114.232 229.174 114.232C229.798 114.232 230.266 114.096 230.578 113.824C230.898 113.544 231.058 113.176 231.058 112.72V112.648C231.058 112.208 230.894 111.872 230.566 111.64C230.246 111.408 229.722 111.24 228.994 111.136C228.57 111.08 228.186 110.996 227.842 110.884C227.506 110.764 227.218 110.612 226.978 110.428C226.738 110.236 226.554 110.008 226.426 109.744C226.298 109.48 226.234 109.168 226.234 108.808V108.664C226.234 108.336 226.302 108.036 226.438 107.764C226.574 107.492 226.762 107.256 227.002 107.056C227.25 106.856 227.542 106.704 227.878 106.6C228.222 106.488 228.598 106.432 229.006 106.432C229.478 106.432 229.898 106.5 230.266 106.636C230.642 106.772 230.958 106.956 231.214 107.188C231.47 107.412 231.662 107.68 231.79 107.992C231.926 108.296 231.994 108.616 231.994 108.952V109.456H230.986V109.024ZM234.41 112.312C234.434 112.904 234.618 113.38 234.962 113.74C235.306 114.1 235.786 114.28 236.402 114.28C236.682 114.28 236.926 114.248 237.134 114.184C237.342 114.12 237.518 114.032 237.662 113.92C237.814 113.808 237.934 113.68 238.022 113.536C238.118 113.384 238.194 113.224 238.25 113.056L239.138 113.296C238.97 113.848 238.658 114.3 238.202 114.652C237.754 114.996 237.146 115.168 236.378 115.168C235.954 115.168 235.562 115.096 235.202 114.952C234.85 114.8 234.546 114.588 234.29 114.316C234.034 114.044 233.834 113.72 233.69 113.344C233.546 112.968 233.474 112.552 233.474 112.096V111.808C233.474 111.392 233.546 111.004 233.69 110.644C233.842 110.284 234.05 109.976 234.314 109.72C234.578 109.456 234.886 109.252 235.238 109.108C235.598 108.956 235.986 108.88 236.402 108.88C236.89 108.88 237.31 108.972 237.662 109.156C238.022 109.332 238.314 109.552 238.538 109.816C238.77 110.08 238.938 110.368 239.042 110.68C239.154 110.992 239.21 111.28 239.21 111.544V112.312H234.41ZM236.402 109.768C236.138 109.768 235.89 109.812 235.658 109.9C235.434 109.98 235.234 110.096 235.058 110.248C234.89 110.4 234.75 110.58 234.638 110.788C234.534 110.988 234.466 111.208 234.434 111.448H238.274C238.258 111.192 238.194 110.96 238.082 110.752C237.978 110.544 237.838 110.368 237.662 110.224C237.494 110.08 237.298 109.968 237.074 109.888C236.858 109.808 236.634 109.768 236.402 109.768ZM246.641 112.888C246.577 113.216 246.465 113.52 246.305 113.8C246.153 114.08 245.957 114.324 245.717 114.532C245.477 114.732 245.197 114.888 244.877 115C244.557 115.112 244.201 115.168 243.809 115.168C243.393 115.168 242.997 115.1 242.621 114.964C242.253 114.828 241.929 114.632 241.649 114.376C241.369 114.112 241.145 113.792 240.977 113.416C240.817 113.04 240.737 112.608 240.737 112.12V111.976C240.737 111.496 240.817 111.064 240.977 110.68C241.145 110.296 241.369 109.972 241.649 109.708C241.929 109.444 242.253 109.24 242.621 109.096C242.997 108.952 243.393 108.88 243.809 108.88C244.185 108.88 244.533 108.936 244.853 109.048C245.173 109.16 245.453 109.32 245.693 109.528C245.941 109.728 246.141 109.968 246.293 110.248C246.453 110.528 246.561 110.832 246.617 111.16L245.681 111.376C245.657 111.168 245.597 110.968 245.501 110.776C245.413 110.576 245.289 110.404 245.129 110.26C244.977 110.108 244.789 109.988 244.565 109.9C244.341 109.812 244.081 109.768 243.785 109.768C243.497 109.768 243.225 109.824 242.969 109.936C242.721 110.04 242.501 110.192 242.309 110.392C242.117 110.584 241.965 110.816 241.853 111.088C241.749 111.36 241.697 111.656 241.697 111.976V112.12C241.697 112.456 241.749 112.76 241.853 113.032C241.965 113.296 242.117 113.52 242.309 113.704C242.501 113.888 242.725 114.032 242.981 114.136C243.237 114.232 243.513 114.28 243.809 114.28C244.105 114.28 244.361 114.236 244.577 114.148C244.801 114.052 244.989 113.932 245.141 113.788C245.301 113.636 245.425 113.464 245.513 113.272C245.609 113.08 245.673 112.88 245.705 112.672L246.641 112.888ZM254.037 112.096C254.037 112.592 253.953 113.032 253.785 113.416C253.625 113.792 253.409 114.112 253.137 114.376C252.865 114.632 252.545 114.828 252.177 114.964C251.817 115.1 251.441 115.168 251.049 115.168C250.649 115.168 250.269 115.1 249.909 114.964C249.549 114.828 249.233 114.632 248.961 114.376C248.689 114.112 248.469 113.792 248.301 113.416C248.141 113.032 248.061 112.592 248.061 112.096V111.952C248.061 111.464 248.141 111.032 248.301 110.656C248.469 110.272 248.689 109.948 248.961 109.684C249.241 109.42 249.561 109.22 249.921 109.084C250.281 108.948 250.657 108.88 251.049 108.88C251.441 108.88 251.817 108.948 252.177 109.084C252.537 109.22 252.853 109.42 253.125 109.684C253.405 109.948 253.625 110.272 253.785 110.656C253.953 111.032 254.037 111.464 254.037 111.952V112.096ZM251.049 114.28C251.337 114.28 251.601 114.232 251.841 114.136C252.089 114.032 252.305 113.884 252.489 113.692C252.673 113.5 252.817 113.272 252.921 113.008C253.025 112.736 253.077 112.432 253.077 112.096V111.952C253.077 111.632 253.025 111.34 252.921 111.076C252.817 110.804 252.673 110.572 252.489 110.38C252.305 110.188 252.089 110.04 251.841 109.936C251.593 109.824 251.329 109.768 251.049 109.768C250.769 109.768 250.505 109.824 250.257 109.936C250.009 110.04 249.793 110.188 249.609 110.38C249.425 110.572 249.281 110.804 249.177 111.076C249.073 111.34 249.021 111.632 249.021 111.952V112.096C249.021 112.432 249.073 112.736 249.177 113.008C249.281 113.272 249.425 113.5 249.609 113.692C249.793 113.884 250.005 114.032 250.245 114.136C250.493 114.232 250.761 114.28 251.049 114.28ZM256.705 115H255.769V109.048H256.705V110.056H256.849C257.217 109.272 257.857 108.88 258.769 108.88C259.457 108.88 260.005 109.096 260.413 109.528C260.821 109.952 261.025 110.592 261.025 111.448V115H260.089V111.64C260.089 111.016 259.949 110.548 259.669 110.236C259.389 109.924 259.009 109.768 258.529 109.768C257.961 109.768 257.513 109.964 257.185 110.356C256.865 110.74 256.705 111.256 256.705 111.904V115ZM267.724 114.088H267.58C267.484 114.272 267.36 114.432 267.208 114.568C267.064 114.704 266.904 114.816 266.728 114.904C266.56 114.992 266.38 115.056 266.188 115.096C265.996 115.144 265.812 115.168 265.636 115.168C265.236 115.168 264.864 115.1 264.52 114.964C264.176 114.828 263.872 114.632 263.608 114.376C263.352 114.12 263.148 113.804 262.996 113.428C262.852 113.044 262.78 112.608 262.78 112.12V111.928C262.78 111.448 262.856 111.02 263.008 110.644C263.16 110.26 263.364 109.94 263.62 109.684C263.876 109.42 264.176 109.22 264.52 109.084C264.864 108.948 265.228 108.88 265.612 108.88C266.02 108.88 266.4 108.972 266.752 109.156C267.112 109.332 267.388 109.608 267.58 109.984H267.724V106.6H268.66V115H267.724V114.088ZM265.732 114.28C266.012 114.28 266.272 114.228 266.512 114.124C266.752 114.02 266.96 113.872 267.136 113.68C267.32 113.488 267.464 113.26 267.568 112.996C267.672 112.724 267.724 112.424 267.724 112.096V111.952C267.724 111.632 267.672 111.34 267.568 111.076C267.464 110.804 267.32 110.572 267.136 110.38C266.96 110.188 266.748 110.04 266.5 109.936C266.26 109.824 266.004 109.768 265.732 109.768C265.452 109.768 265.188 109.82 264.94 109.924C264.7 110.028 264.488 110.176 264.304 110.368C264.128 110.56 263.988 110.788 263.884 111.052C263.788 111.316 263.74 111.608 263.74 111.928V112.12C263.74 112.456 263.788 112.756 263.884 113.02C263.988 113.284 264.128 113.512 264.304 113.704C264.488 113.888 264.7 114.032 264.94 114.136C265.18 114.232 265.444 114.28 265.732 114.28ZM271.7 110.584C271.7 110.872 271.82 111.092 272.06 111.244C272.308 111.396 272.756 111.496 273.404 111.544C274.1 111.6 274.628 111.768 274.988 112.048C275.356 112.32 275.54 112.72 275.54 113.248V113.32C275.54 113.608 275.48 113.868 275.36 114.1C275.248 114.324 275.088 114.516 274.88 114.676C274.68 114.836 274.432 114.956 274.136 115.036C273.848 115.124 273.532 115.168 273.188 115.168C272.724 115.168 272.324 115.108 271.988 114.988C271.66 114.86 271.384 114.696 271.16 114.496C270.944 114.288 270.78 114.056 270.668 113.8C270.556 113.536 270.492 113.272 270.476 113.008L271.364 112.792C271.404 113.248 271.58 113.616 271.892 113.896C272.204 114.168 272.62 114.304 273.14 114.304C273.58 114.304 273.932 114.22 274.196 114.052C274.468 113.876 274.604 113.632 274.604 113.32C274.604 112.984 274.472 112.744 274.208 112.6C273.944 112.456 273.516 112.364 272.924 112.324C272.236 112.276 271.708 112.116 271.34 111.844C270.972 111.572 270.788 111.176 270.788 110.656V110.584C270.788 110.304 270.848 110.06 270.968 109.852C271.088 109.636 271.248 109.456 271.448 109.312C271.656 109.168 271.888 109.06 272.144 108.988C272.4 108.916 272.668 108.88 272.948 108.88C273.34 108.88 273.684 108.936 273.98 109.048C274.276 109.152 274.524 109.292 274.724 109.468C274.924 109.636 275.076 109.832 275.18 110.056C275.292 110.28 275.364 110.504 275.396 110.728L274.508 110.944C274.468 110.56 274.312 110.26 274.04 110.044C273.776 109.828 273.428 109.72 272.996 109.72C272.828 109.72 272.664 109.74 272.504 109.78C272.352 109.812 272.216 109.864 272.096 109.936C271.976 110.008 271.88 110.1 271.808 110.212C271.736 110.316 271.7 110.44 271.7 110.584Z" fill="white"/>
</g>
<defs>
<filter id="filter0_b_34442_26" x="-10" y="-10" width="335" height="164" filterUnits="userSpaceOnUse" color-interpolation-filters="sRGB">
<feFlood flood-opacity="0" result="BackgroundImageFix"/>
<feGaussianBlur in="BackgroundImageFix" stdDeviation="5"/>
<feComposite in2="SourceAlpha" operator="in" result="effect1_backgroundBlur_34442_26"/>
<feBlend mode="normal" in="SourceGraphic" in2="effect1_backgroundBlur_34442_26" result="shape"/>
</filter>
</defs>
</svg>
